<?xml version="1.0" encoding="UTF-8"?>
<svg xmlns="http://www.w3.org/2000/svg" xmlns:xlink="http://www.w3.org/1999/xlink" width="90px" height="100px" viewBox="0 0 90 100" version="1.1">
<g id="surface1">
<path style=" stroke:none;fill-rule:nonzero;fill:rgb(0%,0%,0%);fill-opacity:1;" d="M 0.757812 1.074219 C 0.207031 1.765625 0.0703125 15.261719 0.207031 49.921875 L 0.34375 97.777344 L 0.550781 49.691406 C 0.691406 4.832031 0.757812 1.535156 1.933594 0.84375 C 2.554688 0.382812 2.761719 0 2.347656 0 C 1.933594 0 1.171875 0.460938 0.757812 1.074219 Z M 0.757812 1.074219 "/>
<path style=" stroke:none;fill-rule:nonzero;fill:rgb(0%,0%,0%);fill-opacity:1;" d="M 88.273438 1.074219 C 88.828125 1.765625 88.964844 15.335938 88.894531 50.308594 L 88.6875 98.542969 L 1.726562 99.308594 L 44.929688 99.539062 C 77.714844 99.617188 88.273438 99.464844 88.894531 98.773438 C 89.515625 98.082031 89.722656 86.195312 89.722656 50.152344 C 89.722656 23.925781 89.515625 1.917969 89.308594 1.226562 C 89.101562 0.535156 88.550781 0 88.207031 0 C 87.722656 0 87.792969 0.382812 88.273438 1.074219 Z M 88.273438 1.074219 "/>
<path style=" stroke:none;fill-rule:nonzero;fill:rgb(0%,0%,0%);fill-opacity:1;" d="M 4.832031 49.847656 L 4.832031 94.324219 L 84.894531 94.324219 L 84.894531 5.367188 L 4.832031 5.367188 Z M 20.980469 12.730469 C 22.222656 14.109375 22.5 20.707031 21.394531 23.082031 C 20.773438 24.308594 19.878906 24.539062 15.875 24.539062 C 8.972656 24.539062 8.972656 24.539062 8.972656 18.328125 C 8.972656 12.039062 9.457031 11.578125 15.667969 11.503906 C 18.636719 11.503906 20.222656 11.886719 20.980469 12.730469 Z M 80.613281 13.191406 C 81.71875 14.417969 81.71875 21.625 80.613281 22.851562 C 80.0625 23.464844 77.4375 23.773438 73.367188 23.773438 L 66.949219 23.773438 L 66.949219 65.949219 L 69.433594 65.949219 C 71.570312 65.949219 71.847656 66.179688 71.640625 67.636719 C 71.433594 69.171875 71.089844 69.324219 68.328125 69.171875 C 66.601562 69.019531 65.015625 68.636719 64.671875 68.328125 C 64.394531 68.019531 64.257812 57.285156 64.324219 44.402344 L 64.53125 21.089844 L 71.640625 20.859375 L 78.679688 20.628906 L 78.679688 15.335938 L 29.679688 15.335938 L 29.746094 35.351562 C 29.746094 46.394531 29.953125 55.90625 30.160156 56.441406 C 30.4375 57.285156 33.265625 57.515625 43.757812 57.515625 C 53.144531 57.515625 57.285156 57.820312 57.835938 58.4375 C 58.941406 59.664062 58.941406 66.871094 57.835938 68.097656 C 57.214844 68.789062 52.039062 69.019531 38.925781 69.019531 C 23.398438 69.019531 20.636719 68.863281 19.738281 67.792969 C 18.773438 66.792969 18.636719 64.035156 18.636719 49.386719 L 18.636719 32.207031 L 14.148438 32.207031 C 10.144531 32.207031 9.664062 32.054688 9.664062 30.675781 C 9.664062 29.292969 10.144531 29.140625 14.769531 29.140625 C 22.15625 29.140625 21.949219 28.605469 21.949219 48.925781 L 21.949219 65.566406 L 38.925781 65.796875 L 55.90625 65.949219 L 55.90625 60.582031 L 28.296875 60.582031 L 27.605469 58.589844 C 27.191406 57.515625 26.917969 47.699219 26.917969 36.425781 C 26.917969 25.152344 27.191406 15.335938 27.605469 14.265625 L 28.296875 12.269531 L 54.042969 12.269531 C 73.160156 12.269531 79.992188 12.5 80.613281 13.191406 Z M 20.5 76.917969 C 20.429688 78.222656 20.015625 79.449219 19.671875 79.601562 C 18.84375 79.832031 18.359375 76.304688 18.910156 74.691406 C 19.601562 72.777344 20.566406 74.234375 20.5 76.917969 Z M 25.535156 74.308594 C 25.535156 74.691406 24.914062 75.152344 24.15625 75.382812 C 23.398438 75.613281 22.777344 76.378906 22.777344 77.070312 C 22.777344 77.761719 23.398438 78.527344 24.15625 78.757812 C 25.882812 79.292969 25.949219 80.519531 24.292969 80.519531 C 21.742188 80.519531 20.359375 76.609375 22.222656 74.539062 C 23.191406 73.464844 25.535156 73.3125 25.535156 74.308594 Z M 31.058594 74.386719 C 31.058594 74.769531 30.574219 75.152344 30.023438 75.152344 C 29.332031 75.152344 28.988281 75.996094 28.988281 77.835938 C 28.988281 79.292969 28.710938 80.519531 28.296875 80.519531 C 27.953125 80.519531 27.605469 79.292969 27.605469 77.835938 C 27.605469 76.378906 27.332031 75.152344 26.917969 75.152344 C 26.570312 75.152344 26.226562 74.769531 26.226562 74.386719 C 26.226562 73.925781 27.332031 73.621094 28.644531 73.621094 C 29.953125 73.621094 31.058594 73.925781 31.058594 74.386719 Z M 37.269531 77.148438 C 38.167969 79.984375 37.683594 81.671875 36.578125 79.753906 C 36.027344 78.835938 35.683594 78.757812 34.507812 79.601562 C 32.851562 80.75 32.785156 79.984375 34.164062 76.226562 C 35.335938 73.082031 36.164062 73.3125 37.269531 77.148438 Z M 42.792969 74.308594 C 42.792969 74.691406 42.171875 75.152344 41.410156 75.382812 C 40.652344 75.613281 40.03125 76.378906 40.03125 77.070312 C 40.03125 77.761719 40.652344 78.527344 41.410156 78.757812 C 43.136719 79.292969 43.207031 80.519531 41.550781 80.519531 C 38.996094 80.519531 37.613281 76.609375 39.480469 74.539062 C 40.445312 73.464844 42.792969 73.3125 42.792969 74.308594 Z M 47.898438 76.765625 C 49.210938 80.445312 49.003906 81.058594 47 79.601562 C 45.757812 78.757812 45.414062 78.757812 44.863281 79.753906 C 44.515625 80.367188 44.035156 80.675781 43.828125 80.367188 C 43.34375 79.832031 45.484375 73.621094 46.242188 73.621094 C 46.519531 73.621094 47.277344 75.078125 47.898438 76.765625 Z M 53.695312 74.539062 C 55.699219 76.765625 54.179688 80.519531 51.28125 80.519531 C 49.832031 80.519531 49.691406 80.136719 49.691406 77.070312 C 49.691406 74.003906 49.832031 73.621094 51.28125 73.621094 C 52.179688 73.621094 53.214844 74.003906 53.695312 74.539062 Z M 59.355469 74.386719 C 59.355469 74.769531 58.664062 75.152344 57.835938 75.230469 C 56.320312 75.230469 56.320312 75.308594 57.976562 76.074219 L 59.699219 76.839844 L 57.976562 77.683594 C 56.25 78.449219 56.25 78.449219 57.835938 78.757812 C 60.046875 79.21875 59.699219 80.675781 57.492188 80.367188 C 55.972656 80.214844 55.492188 79.679688 55.351562 77.992188 C 55.214844 76.765625 55.285156 75.308594 55.492188 74.691406 C 55.90625 73.464844 59.355469 73.234375 59.355469 74.386719 Z M 62.808594 75.308594 L 63.429688 77.070312 L 63.910156 75.308594 C 64.738281 72.164062 66.257812 73.3125 66.257812 77.070312 C 66.257812 80.292969 64.945312 82.132812 64.808594 79.140625 C 64.738281 77.914062 64.671875 77.914062 64.394531 79.140625 C 64.050781 80.75 62.808594 80.980469 62.738281 79.523438 C 62.738281 78.757812 62.601562 78.757812 62.324219 79.523438 C 61.5625 81.671875 60.734375 80.367188 60.734375 77.070312 C 60.734375 73.390625 61.769531 72.546875 62.808594 75.308594 Z M 68.878906 74.847656 C 69.433594 75.921875 69.570312 75.921875 70.328125 74.847656 C 71.777344 72.851562 72.746094 73.464844 71.503906 75.535156 C 70.882812 76.535156 70.398438 78.066406 70.398438 78.988281 C 70.398438 79.832031 70.121094 80.519531 69.707031 80.519531 C 69.363281 80.519531 69.019531 79.984375 69.019531 79.371094 C 69.019531 78.679688 68.535156 77.148438 67.984375 75.921875 C 66.878906 73.621094 67.777344 72.621094 68.878906 74.847656 Z M 20.707031 85.660156 C 20.773438 86.964844 20.773438 86.964844 21.671875 85.660156 C 23.050781 83.664062 24.5 83.972656 23.191406 86.042969 C 22.222656 87.578125 22.222656 87.882812 23.121094 89.492188 C 24.363281 91.5625 23.742188 91.792969 21.949219 89.953125 C 20.773438 88.804688 20.707031 88.804688 20.707031 89.953125 C 20.707031 90.722656 20.429688 91.257812 20.015625 91.257812 C 19.671875 91.257812 19.324219 89.722656 19.324219 87.808594 C 19.324219 85.890625 19.671875 84.355469 20.015625 84.355469 C 20.429688 84.355469 20.707031 84.96875 20.707031 85.660156 Z M 33.128906 85.121094 C 33.128906 85.507812 32.4375 85.964844 31.609375 85.964844 C 30.4375 86.042969 30.300781 86.121094 31.265625 86.425781 C 32.785156 86.886719 32.785156 87.347656 31.265625 88.648438 C 30.09375 89.570312 30.160156 89.648438 31.609375 89.722656 C 32.4375 89.722656 33.128906 90.03125 33.128906 90.492188 C 33.128906 90.875 32.230469 91.257812 31.058594 91.257812 C 29.058594 91.257812 28.988281 91.105469 28.988281 87.808594 C 28.988281 84.507812 29.058594 84.355469 31.058594 84.355469 C 32.230469 84.355469 33.128906 84.664062 33.128906 85.121094 Z M 42.101562 85.507812 C 42.792969 86.425781 42.792969 86.964844 42.238281 87.578125 C 41.617188 88.265625 41.617188 88.726562 42.238281 89.492188 C 42.652344 90.03125 42.792969 90.796875 42.515625 91.105469 C 42.238281 91.410156 41.617188 91.027344 41.066406 90.261719 C 40.238281 88.957031 40.167969 88.957031 39.617188 90.261719 C 39.203125 91.335938 38.996094 90.949219 38.648438 88.574219 C 38.441406 86.886719 38.375 85.277344 38.511719 84.894531 C 38.925781 83.894531 41.203125 84.277344 42.101562 85.507812 Z M 51.972656 87.808594 C 52.9375 90.796875 52.9375 91.257812 52.039062 91.257812 C 51.488281 91.257812 51.074219 90.875 51.074219 90.492188 C 51.074219 90.03125 50.589844 89.722656 50.039062 89.722656 C 49.484375 89.722656 49.003906 90.03125 49.003906 90.492188 C 49.003906 90.875 48.726562 91.257812 48.3125 91.257812 C 47.96875 91.257812 47.621094 90.949219 47.621094 90.566406 C 47.621094 89.1875 49.761719 84.355469 50.3125 84.355469 C 50.660156 84.355469 51.417969 85.890625 51.972656 87.808594 Z M 59.355469 87.039062 C 59.355469 88.878906 59.699219 89.722656 60.390625 89.722656 C 60.941406 89.722656 61.425781 90.03125 61.425781 90.492188 C 61.425781 90.875 60.667969 91.257812 59.699219 91.257812 C 58.113281 91.257812 57.976562 90.949219 57.976562 87.808594 C 57.976562 85.890625 58.320312 84.355469 58.664062 84.355469 C 59.078125 84.355469 59.355469 85.582031 59.355469 87.039062 Z M 70.675781 87.5 C 71.917969 90.949219 71.710938 92.023438 70.054688 90.492188 C 69.226562 89.722656 68.8125 89.722656 67.984375 90.492188 C 67.363281 91.027344 66.742188 91.335938 66.535156 91.105469 C 66.050781 90.566406 68.328125 84.355469 69.019531 84.355469 C 69.292969 84.355469 70.054688 85.8125 70.675781 87.5 Z M 70.675781 87.5 "/>
<path style=" stroke:none;fill-rule:nonzero;fill:rgb(0%,0%,0%);fill-opacity:1;" d="M 15.046875 15.183594 L 11.734375 15.414062 L 11.734375 21.472656 L 19.324219 21.472656 L 19.324219 18.480469 C 19.324219 16.792969 19.117188 15.335938 18.84375 15.183594 C 18.496094 15.03125 16.839844 15.03125 15.046875 15.183594 Z M 15.046875 15.183594 "/>
<path style=" stroke:none;fill-rule:nonzero;fill:rgb(0%,0%,0%);fill-opacity:1;" d="M 51.074219 77.070312 C 51.074219 78.375 51.417969 78.988281 51.972656 78.757812 C 52.386719 78.605469 52.800781 77.835938 52.800781 77.070312 C 52.800781 76.304688 52.386719 75.535156 51.972656 75.308594 C 51.417969 75.152344 51.074219 75.765625 51.074219 77.070312 Z M 51.074219 77.070312 "/>
<path style=" stroke:none;fill-rule:nonzero;fill:rgb(0%,0%,0%);fill-opacity:1;" d="M 40.03125 86.734375 C 40.03125 87.117188 40.375 87.269531 40.722656 87.039062 C 41.136719 86.808594 41.410156 86.425781 41.410156 86.195312 C 41.410156 86.042969 41.136719 85.890625 40.722656 85.890625 C 40.375 85.890625 40.03125 86.273438 40.03125 86.734375 Z M 40.03125 86.734375 "/>
</g>
</svg>
